<svg xmlns="http://www.w3.org/2000/svg" data-name="Layer 1" viewBox="0 0 512 512"><path d="M310.56 181.64a7.5 7.5 0 0 0-7.5-7.5h-94.12a7.5 7.5 0 1 0 0 15h17.374a43.512 43.512 0 0 1 42.857 36.34h-60.232a7.5 7.5 0 0 0 0 15h60.093a43.51 43.51 0 0 1-42.717 35.56h-16.597a7.503 7.503 0 0 0-2.823.552l-.498.202a7.5 7.5 0 0 0-2.6 12.129l68.151 71.351a7.5 7.5 0 1 0 10.847-10.36l-56.233-58.875a58.527 58.527 0 0 0 57.654-50.56h18.845a7.5 7.5 0 0 0 0-15h-18.746a58.367 58.367 0 0 0-18.955-36.338h37.7a7.5 7.5 0 0 0 7.5-7.5ZM156.844 58.03A218.69 218.69 0 0 1 256 34.563a221.3 221.3 0 0 1 173.613 84.17l-14.991-2.341a7.5 7.5 0 0 0-2.315 14.82l32.904 5.138a7.5 7.5 0 0 0 8.633-6.815l2.647-33.197a7.5 7.5 0 1 0-14.952-1.192l-1.047 13.135A236.283 236.283 0 0 0 256 19.563 233.559 233.559 0 0 0 150.103 44.63a7.5 7.5 0 1 0 6.74 13.4Zm199.369 395.407a218.645 218.645 0 0 1-100.212 24 221.3 221.3 0 0 1-173.613-84.17l14.992 2.341a7.5 7.5 0 0 0 2.314-14.82L66.79 375.65a7.5 7.5 0 0 0-8.633 6.815l-2.647 33.197a7.5 7.5 0 0 0 6.88 8.072q.305.024.605.024a7.5 7.5 0 0 0 7.467-6.904l1.048-13.135A236.283 236.283 0 0 0 256 492.437 233.49 233.49 0 0 0 363.023 466.8a7.5 7.5 0 1 0-6.811-13.363Zm60.642-11.899-13.135-1.047A236.283 236.283 0 0 0 492.437 256a233.449 233.449 0 0 0-26.029-107.79 7.5 7.5 0 1 0-13.339 6.862A218.582 218.582 0 0 1 477.437 256a221.298 221.298 0 0 1-84.17 173.613l2.341-14.992a7.5 7.5 0 1 0-14.82-2.314l-5.138 32.904a7.5 7.5 0 0 0 6.814 8.634l33.198 2.646q.304.024.604.024a7.5 7.5 0 0 0 .588-14.977ZM256 79.563c-97.288 0-176.437 79.15-176.437 176.437S158.713 432.437 256 432.437 432.437 353.287 432.437 256 353.287 79.563 256 79.563Zm0 337.873c-89.017 0-161.437-72.42-161.437-161.436S166.983 94.563 256 94.563 417.437 166.983 417.437 256 345.017 417.437 256 417.437ZM57.7 354.498A218.733 218.733 0 0 1 34.563 256a221.297 221.297 0 0 1 84.17-173.612l-2.341 14.99a7.5 7.5 0 1 0 14.82 2.315l5.138-32.904a7.5 7.5 0 0 0-6.814-8.634L96.338 55.51a7.5 7.5 0 0 0-1.192 14.953l13.135 1.047A236.281 236.281 0 0 0 19.563 256a233.603 233.603 0 0 0 24.714 105.193 7.5 7.5 0 0 0 13.423-6.695Z"/></svg>