<svg xmlns="http://www.w3.org/2000/svg" viewBox="0 0 48 48"><path fill-rule="evenodd" d="M26,8h-2v-1c0-1.66-1.34-3-3-3,0,0-.18,0,0,0-1.66,0-3,1.34-3,3v1h-2v-1c0-1.66-1.34-3-3-3,0,0-.18,0,0,0-1.66,0-3,1.34-3,3v1h-1.97c-2.22,0-4.03,1.8-4.03,4.03v22.94c0,2.22,1.8,4.03,4.03,4.03h3.97v2.04c0,1.63,1.32,2.96,2.96,2.96h26.08c1.63,0,2.96-1.32,2.96-2.96v-12.08c0-1.63-1.32-2.96-2.96-2.96h-3.04V12.03c0-1.07-.42-2.09-1.18-2.85-.76-.76-1.78-1.18-2.85-1.18h-1.97v-1c0-1.66-1.34-3-3-3,0,0-.18,0,0,0-1.66,0-3,1.34-3,3v1h0ZM14,40v1.04c0,.53,.43,.96,.96,.96h1.04c-.02-1.1-.9-1.98-2-2h0Zm8.35-12h-4.35c-.02,2.2-1.8,3.98-4,4v6c2.2,.02,3.98,1.8,4,4h4.35c-2.04-1.65-3.35-4.17-3.35-7s1.31-5.35,3.35-7h0Zm5.65,0c3.86,0,7,3.14,7,7s-3.14,7-7,7-7-3.14-7-7,3.14-7,7-7h0Zm10,0h-4.35c2.04,1.65,3.35,4.17,3.35,7s-1.31,5.35-3.35,7h4.35c.02-2.2,1.8-3.98,4-4v-6c-2.2-.02-3.98-1.8-4-4h0Zm4,12c-1.1,.02-1.98,.9-2,2h1.04c.53,0,.96-.43,.96-.96v-1.04h0Zm-15-8.95c-.48,.1-.92,.33-1.27,.68-.47,.47-.73,1.1-.73,1.77s.26,1.3,.73,1.77c.47,.47,1.1,.73,1.77,.73h1c.13,0,.26,.05,.35,.15,.09,.09,.15,.22,.15,.35s-.05,.26-.15,.35c-.09,.09-.22,.15-.35,.15h-2.5c-.55,0-1,.45-1,1s.45,1,1,1h1v1c0,.55,.45,1,1,1s1-.45,1-1v-1.05c.48-.1,.92-.33,1.27-.68,.47-.47,.73-1.1,.73-1.77s-.26-1.3-.73-1.77c-.47-.47-1.1-.73-1.77-.73h-1c-.13,0-.26-.05-.35-.15s-.15-.22-.15-.35,.05-.26,.15-.35c.09-.09,.22-.15,.35-.15h2.5c.55,0,1-.45,1-1s-.45-1-1-1h-1v-1c0-.55-.45-1-1-1s-1,.45-1,1v1.05h0Zm7-5.05h2v-9H6v17.97c0,1.12,.91,2.03,2.03,2.03h3.97v-2h-3c-.55,0-1-.45-1-1v-14c0-.55,.45-1,1-1h24c.55,0,1,.45,1,1v6h0Zm-21.84,2h-2.16v5h2v-4.04c0-.34,.06-.66,.16-.96h0Zm3.84,0h-1.04c-.53,0-.96,.43-.96,.96v1.04c1.1-.02,1.98-.9,2-2h0Zm24,0c.02,1.1,.9,1.98,2,2v-1.04c0-.53-.43-.96-.96-.96h-1.04Zm-14-7v5h6v-5h-6Zm-8,5h6v-5h-6v5h0Zm-8,0h6v-5h-6v5h0Zm0-16h-1.97c-1.12,0-2.03,.91-2.03,2.03v2.97h30v-2.97c0-.54-.21-1.05-.59-1.43s-.9-.59-1.43-.59h-1.97v1c0,1.66-1.34,3-3,3s-3-1.34-3-3v-1h-2v1c0,1.66-1.34,3-3,3s-3-1.34-3-3v-1h-2v1c0,1.66-1.34,3-3,3s-3-1.34-3-3v-1h0Zm11,2c-.55,0-1-.45-1-1v-4c0-.55,.45-1,1-1s1,.45,1,1v4c0,.55-.45,1-1,1h0Zm8,0c-.55,0-1-.45-1-1v-4c0-.55,.45-1,1-1s1,.45,1,1v4c0,.55-.45,1-1,1h0Zm-16,0c-.55,0-1-.45-1-1v-4c0-.55,.45-1,1-1s1,.45,1,1v4c0,.55-.45,1-1,1h0Z"/></svg>